<mxfile host="65bd71144e">
    <diagram id="Thp0P7u31oiVruy-mGN0" name="Page-1">
        <mxGraphModel dx="720" dy="624" grid="1" gridSize="10" guides="1" tooltips="1" connect="1" arrows="1" fold="1" page="1" pageScale="1" pageWidth="850" pageHeight="1100" background="#ffffff" math="0" shadow="0">
            <root>
                <mxCell id="0"/>
                <mxCell id="1" parent="0"/>
                <mxCell id="12" value="" style="rounded=0;whiteSpace=wrap;html=1;fontSize=14;fontColor=#000000;fillColor=#FFFFFF;strokeWidth=3;strokeColor=#000000;" parent="1" vertex="1">
                    <mxGeometry x="41" y="80" width="40" height="55" as="geometry"/>
                </mxCell>
                <mxCell id="13" value="" style="rounded=0;whiteSpace=wrap;html=1;fontSize=14;fontColor=#000000;fillColor=#FFFFFF;strokeWidth=3;strokeColor=#000000;" parent="1" vertex="1">
                    <mxGeometry x="131" y="80" width="40" height="55" as="geometry"/>
                </mxCell>
                <mxCell id="14" value="" style="rounded=0;whiteSpace=wrap;html=1;fontSize=14;fontColor=#000000;fillColor=#FFFFFF;strokeWidth=3;strokeColor=#000000;" parent="1" vertex="1">
                    <mxGeometry x="310" y="460" width="40" height="55" as="geometry"/>
                </mxCell>
                <mxCell id="15" value="1" style="rounded=0;whiteSpace=wrap;html=1;fontSize=14;fontColor=#000000;fillColor=#66FFFF;strokeWidth=3;strokeColor=#000000;fontStyle=1" parent="1" vertex="1">
                    <mxGeometry x="41" y="80" width="40" height="30" as="geometry"/>
                </mxCell>
                <mxCell id="16" value="2" style="rounded=0;whiteSpace=wrap;html=1;fontSize=14;fontColor=#000000;fillColor=#66FFFF;strokeWidth=3;strokeColor=#000000;fontStyle=1" parent="1" vertex="1">
                    <mxGeometry x="131" y="80" width="40" height="30" as="geometry"/>
                </mxCell>
                <mxCell id="17" value="&lt;b&gt;4&lt;/b&gt;" style="rounded=0;whiteSpace=wrap;html=1;fontSize=14;fontColor=#000000;fillColor=#66FFFF;strokeWidth=3;strokeColor=#000000;" parent="1" vertex="1">
                    <mxGeometry x="310" y="460" width="40" height="30" as="geometry"/>
                </mxCell>
                <mxCell id="18" value="" style="endArrow=classic;html=1;fontSize=19;fontColor=#000000;strokeColor=#000000;strokeWidth=3;entryX=0;entryY=1;entryDx=0;entryDy=0;rounded=1;" parent="1" target="16" edge="1">
                    <mxGeometry width="50" height="50" relative="1" as="geometry">
                        <mxPoint x="61" y="122.5" as="sourcePoint"/>
                        <mxPoint x="121" y="102.5" as="targetPoint"/>
                    </mxGeometry>
                </mxCell>
                <mxCell id="19" value="" style="endArrow=classic;html=1;fontSize=19;fontColor=#000000;strokeColor=#000000;strokeWidth=3;entryX=0;entryY=1;entryDx=0;entryDy=0;" parent="1" edge="1">
                    <mxGeometry width="50" height="50" relative="1" as="geometry">
                        <mxPoint x="151" y="122.5" as="sourcePoint"/>
                        <mxPoint x="221" y="110" as="targetPoint"/>
                    </mxGeometry>
                </mxCell>
                <mxCell id="20" value="" style="endArrow=classic;html=1;fontSize=19;fontColor=#000000;strokeColor=#000000;strokeWidth=3;entryX=0;entryY=1;entryDx=0;entryDy=0;" parent="1" edge="1">
                    <mxGeometry width="50" height="50" relative="1" as="geometry">
                        <mxPoint x="330" y="502.5" as="sourcePoint"/>
                        <mxPoint x="400" y="490" as="targetPoint"/>
                    </mxGeometry>
                </mxCell>
                <mxCell id="21" value="&lt;font color=&quot;#000000&quot; style=&quot;font-size: 19px;&quot;&gt;&lt;span style=&quot;font-size: 19px;&quot;&gt;nullptr&lt;/span&gt;&lt;/font&gt;" style="text;html=1;strokeColor=none;fillColor=none;align=left;verticalAlign=middle;whiteSpace=wrap;rounded=0;fontStyle=1;fontSize=19;" parent="1" vertex="1">
                    <mxGeometry x="400" y="475" width="98" height="30" as="geometry"/>
                </mxCell>
                <mxCell id="22" value="&lt;font size=&quot;1&quot; style=&quot;&quot;&gt;&lt;b style=&quot;font-size: 15px;&quot;&gt;head&lt;/b&gt;&lt;/font&gt;" style="text;html=1;strokeColor=none;fillColor=none;align=center;verticalAlign=middle;whiteSpace=wrap;rounded=0;fontSize=19;fontColor=#000000;" parent="1" vertex="1">
                    <mxGeometry x="30" y="50" width="60" height="30" as="geometry"/>
                </mxCell>
                <mxCell id="23" value="&lt;font size=&quot;1&quot; style=&quot;&quot;&gt;&lt;b style=&quot;font-size: 15px;&quot;&gt;tail&lt;/b&gt;&lt;/font&gt;" style="text;html=1;strokeColor=none;fillColor=none;align=center;verticalAlign=middle;whiteSpace=wrap;rounded=0;fontSize=19;fontColor=#000000;" parent="1" vertex="1">
                    <mxGeometry x="300" y="430" width="60" height="30" as="geometry"/>
                </mxCell>
                <mxCell id="24" value="" style="rounded=0;whiteSpace=wrap;html=1;fontSize=14;fontColor=#000000;fillColor=#FFFFFF;strokeWidth=3;strokeColor=#000000;" parent="1" vertex="1">
                    <mxGeometry x="130" y="255" width="40" height="55" as="geometry"/>
                </mxCell>
                <mxCell id="25" value="" style="rounded=0;whiteSpace=wrap;html=1;fontSize=14;fontColor=#000000;fillColor=#FFFFFF;strokeWidth=3;strokeColor=#000000;" parent="1" vertex="1">
                    <mxGeometry x="40" y="255" width="40" height="55" as="geometry"/>
                </mxCell>
                <mxCell id="26" value="&lt;b&gt;1&lt;/b&gt;" style="rounded=0;whiteSpace=wrap;html=1;fontSize=14;fontColor=#000000;fillColor=#FF66FF;strokeWidth=3;strokeColor=#000000;" parent="1" vertex="1">
                    <mxGeometry x="40" y="255" width="40" height="30" as="geometry"/>
                </mxCell>
                <mxCell id="27" value="2" style="rounded=0;whiteSpace=wrap;html=1;fontSize=14;fontColor=#000000;fillColor=#FF66FF;strokeWidth=3;strokeColor=#000000;fontStyle=1" parent="1" vertex="1">
                    <mxGeometry x="130" y="255" width="40" height="30" as="geometry"/>
                </mxCell>
                <mxCell id="28" value="" style="endArrow=classic;html=1;fontSize=19;fontColor=#000000;strokeColor=#000000;strokeWidth=3;entryX=0;entryY=1;entryDx=0;entryDy=0;rounded=1;" parent="1" edge="1">
                    <mxGeometry width="50" height="50" relative="1" as="geometry">
                        <mxPoint x="60" y="297.5" as="sourcePoint"/>
                        <mxPoint x="130" y="285" as="targetPoint"/>
                    </mxGeometry>
                </mxCell>
                <mxCell id="29" value="" style="endArrow=classic;html=1;fontSize=19;fontColor=#000000;strokeColor=#000000;strokeWidth=3;entryX=0;entryY=1;entryDx=0;entryDy=0;" parent="1" edge="1">
                    <mxGeometry width="50" height="50" relative="1" as="geometry">
                        <mxPoint x="150" y="297.5" as="sourcePoint"/>
                        <mxPoint x="220" y="285" as="targetPoint"/>
                    </mxGeometry>
                </mxCell>
                <mxCell id="30" value="&lt;font size=&quot;1&quot; style=&quot;&quot;&gt;&lt;b style=&quot;font-size: 15px;&quot;&gt;head&lt;/b&gt;&lt;/font&gt;" style="text;html=1;strokeColor=none;fillColor=none;align=center;verticalAlign=middle;whiteSpace=wrap;rounded=0;fontSize=19;fontColor=#000000;" parent="1" vertex="1">
                    <mxGeometry x="29" y="225" width="60" height="30" as="geometry"/>
                </mxCell>
                <mxCell id="31" value="&lt;font size=&quot;1&quot; style=&quot;&quot;&gt;&lt;b style=&quot;font-size: 15px;&quot;&gt;tail&lt;/b&gt;&lt;/font&gt;" style="text;html=1;strokeColor=none;fillColor=none;align=center;verticalAlign=middle;whiteSpace=wrap;rounded=0;fontSize=19;fontColor=#000000;" parent="1" vertex="1">
                    <mxGeometry x="211" y="230" width="60" height="22.5" as="geometry"/>
                </mxCell>
                <mxCell id="32" value="" style="rounded=0;whiteSpace=wrap;html=1;fontSize=14;fontColor=#000000;fillColor=#FFFFFF;strokeWidth=3;strokeColor=#000000;" parent="1" vertex="1">
                    <mxGeometry x="221" y="255" width="40" height="55" as="geometry"/>
                </mxCell>
                <mxCell id="33" value="3" style="rounded=0;whiteSpace=wrap;html=1;fontSize=14;fontColor=#000000;fillColor=#FF66FF;strokeWidth=3;strokeColor=#000000;fontStyle=1" parent="1" vertex="1">
                    <mxGeometry x="221" y="255" width="40" height="30" as="geometry"/>
                </mxCell>
                <mxCell id="34" value="" style="endArrow=classic;html=1;fontSize=19;fontColor=#000000;strokeColor=#000000;strokeWidth=3;entryX=0;entryY=1;entryDx=0;entryDy=0;rounded=1;" parent="1" edge="1">
                    <mxGeometry width="50" height="50" relative="1" as="geometry">
                        <mxPoint x="241" y="297.5" as="sourcePoint"/>
                        <mxPoint x="311" y="285" as="targetPoint"/>
                    </mxGeometry>
                </mxCell>
                <mxCell id="35" value="&lt;font color=&quot;#000000&quot; style=&quot;font-size: 19px;&quot;&gt;&lt;span style=&quot;font-size: 19px;&quot;&gt;nullptr&lt;/span&gt;&lt;/font&gt;" style="text;html=1;strokeColor=none;fillColor=none;align=left;verticalAlign=middle;whiteSpace=wrap;rounded=0;fontStyle=1;fontSize=19;" parent="1" vertex="1">
                    <mxGeometry x="311" y="270.5" width="98" height="27" as="geometry"/>
                </mxCell>
                <mxCell id="53" value="&lt;font color=&quot;#000000&quot; style=&quot;font-size: 19px;&quot;&gt;&lt;span style=&quot;font-size: 19px;&quot;&gt;В началото:&lt;/span&gt;&lt;/font&gt;" style="text;html=1;strokeColor=none;fillColor=none;align=center;verticalAlign=bottom;whiteSpace=wrap;rounded=0;fontStyle=1;fontSize=19;" parent="1" vertex="1">
                    <mxGeometry width="190" height="40" as="geometry"/>
                </mxCell>
                <mxCell id="54" value="&lt;font color=&quot;#000000&quot; style=&quot;font-size: 19px;&quot;&gt;&lt;span style=&quot;font-size: 19px;&quot;&gt;В края:&lt;/span&gt;&lt;/font&gt;" style="text;html=1;strokeColor=none;fillColor=none;align=center;verticalAlign=middle;whiteSpace=wrap;rounded=0;fontStyle=1;fontSize=19;" parent="1" vertex="1">
                    <mxGeometry x="1" y="190" width="140" height="30" as="geometry"/>
                </mxCell>
                <mxCell id="55" value="&lt;font color=&quot;#000000&quot; style=&quot;font-size: 19px;&quot;&gt;&lt;span style=&quot;font-size: 19px;&quot;&gt;На произвонла позиция:&lt;/span&gt;&lt;/font&gt;" style="text;html=1;strokeColor=none;fillColor=none;align=center;verticalAlign=middle;whiteSpace=wrap;rounded=0;fontStyle=1;fontSize=19;" parent="1" vertex="1">
                    <mxGeometry x="1" y="390" width="310" height="30" as="geometry"/>
                </mxCell>
                <mxCell id="58" value="" style="endArrow=none;html=1;rounded=1;strokeColor=#FF0000;strokeWidth=2;fontSize=15;fontColor=#FF0000;" parent="1" edge="1">
                    <mxGeometry width="50" height="50" relative="1" as="geometry">
                        <mxPoint x="37" y="71" as="sourcePoint"/>
                        <mxPoint x="83" y="64" as="targetPoint"/>
                    </mxGeometry>
                </mxCell>
                <mxCell id="59" value="&lt;font size=&quot;1&quot; style=&quot;&quot;&gt;&lt;b style=&quot;font-size: 15px;&quot;&gt;head&lt;/b&gt;&lt;/font&gt;" style="text;html=1;strokeColor=none;fillColor=none;align=center;verticalAlign=middle;whiteSpace=wrap;rounded=0;fontSize=19;fontColor=#FF0000;" parent="1" vertex="1">
                    <mxGeometry x="120" y="50" width="60" height="30" as="geometry"/>
                </mxCell>
                <mxCell id="60" value="" style="endArrow=none;html=1;rounded=1;strokeColor=#FF0000;strokeWidth=2;fontSize=15;fontColor=#FF0000;exitX=0;exitY=1;exitDx=0;exitDy=0;" parent="1" source="22" edge="1">
                    <mxGeometry width="50" height="50" relative="1" as="geometry">
                        <mxPoint x="31" y="83.5" as="sourcePoint"/>
                        <mxPoint x="91" y="140" as="targetPoint"/>
                    </mxGeometry>
                </mxCell>
                <mxCell id="61" value="" style="endArrow=none;html=1;rounded=1;strokeColor=#FF0000;strokeWidth=2;fontSize=15;fontColor=#FF0000;" parent="1" edge="1">
                    <mxGeometry width="50" height="50" relative="1" as="geometry">
                        <mxPoint x="30" y="138.5" as="sourcePoint"/>
                        <mxPoint x="90" y="81.5" as="targetPoint"/>
                    </mxGeometry>
                </mxCell>
                <mxCell id="62" value="" style="endArrow=none;html=1;rounded=1;strokeColor=#FF0000;strokeWidth=2;fontSize=15;fontColor=#FF0000;" parent="1" edge="1">
                    <mxGeometry width="50" height="50" relative="1" as="geometry">
                        <mxPoint x="211" y="312.5" as="sourcePoint"/>
                        <mxPoint x="271" y="255.5" as="targetPoint"/>
                    </mxGeometry>
                </mxCell>
                <mxCell id="63" value="" style="endArrow=none;html=1;rounded=1;strokeColor=#FF0000;strokeWidth=2;fontSize=15;fontColor=#FF0000;exitX=0;exitY=1;exitDx=0;exitDy=0;" parent="1" edge="1">
                    <mxGeometry width="50" height="50" relative="1" as="geometry">
                        <mxPoint x="211" y="255" as="sourcePoint"/>
                        <mxPoint x="272" y="315" as="targetPoint"/>
                    </mxGeometry>
                </mxCell>
                <mxCell id="64" value="" style="endArrow=none;html=1;rounded=1;strokeColor=#FF0000;strokeWidth=2;fontSize=15;fontColor=#FF0000;" parent="1" edge="1">
                    <mxGeometry width="50" height="50" relative="1" as="geometry">
                        <mxPoint x="219" y="248" as="sourcePoint"/>
                        <mxPoint x="264" y="238" as="targetPoint"/>
                    </mxGeometry>
                </mxCell>
                <mxCell id="65" value="&lt;font size=&quot;1&quot; style=&quot;&quot;&gt;&lt;b style=&quot;font-size: 15px;&quot;&gt;tail&lt;/b&gt;&lt;/font&gt;" style="text;html=1;strokeColor=none;fillColor=none;align=center;verticalAlign=middle;whiteSpace=wrap;rounded=0;fontSize=19;fontColor=#FF0000;" parent="1" vertex="1">
                    <mxGeometry x="121" y="225" width="59" height="30" as="geometry"/>
                </mxCell>
                <mxCell id="66" value="" style="endArrow=none;html=1;rounded=1;strokeColor=#FF0000;strokeWidth=2;fontSize=15;fontColor=#FF0000;" parent="1" edge="1">
                    <mxGeometry width="50" height="50" relative="1" as="geometry">
                        <mxPoint x="180" y="300" as="sourcePoint"/>
                        <mxPoint x="197" y="280" as="targetPoint"/>
                    </mxGeometry>
                </mxCell>
                <mxCell id="67" value="" style="endArrow=classic;html=1;fontSize=19;fontColor=#000000;strokeColor=#FF0000;strokeWidth=3;" parent="1" edge="1">
                    <mxGeometry width="50" height="50" relative="1" as="geometry">
                        <mxPoint x="150" y="300" as="sourcePoint"/>
                        <mxPoint x="210" y="330" as="targetPoint"/>
                    </mxGeometry>
                </mxCell>
                <mxCell id="68" value="&lt;font style=&quot;font-size: 19px;&quot;&gt;&lt;span style=&quot;font-size: 19px;&quot;&gt;nullptr&lt;/span&gt;&lt;/font&gt;" style="text;html=1;strokeColor=none;fillColor=none;align=left;verticalAlign=middle;whiteSpace=wrap;rounded=0;fontStyle=1;fontSize=19;fontColor=#FF0000;" parent="1" vertex="1">
                    <mxGeometry x="211" y="320" width="98" height="27" as="geometry"/>
                </mxCell>
                <mxCell id="73" value="" style="rounded=0;whiteSpace=wrap;html=1;fontSize=14;fontColor=#000000;fillColor=#FFFFFF;strokeWidth=3;strokeColor=#000000;" parent="1" vertex="1">
                    <mxGeometry x="39" y="460" width="40" height="55" as="geometry"/>
                </mxCell>
                <mxCell id="74" value="" style="rounded=0;whiteSpace=wrap;html=1;fontSize=14;fontColor=#000000;fillColor=#FFFFFF;strokeWidth=3;strokeColor=#000000;" parent="1" vertex="1">
                    <mxGeometry x="129" y="460" width="40" height="55" as="geometry"/>
                </mxCell>
                <mxCell id="75" value="" style="rounded=0;whiteSpace=wrap;html=1;fontSize=14;fontColor=#000000;fillColor=#FFFFFF;strokeWidth=3;strokeColor=#000000;" parent="1" vertex="1">
                    <mxGeometry x="219" y="460" width="40" height="55" as="geometry"/>
                </mxCell>
                <mxCell id="76" value="&lt;b&gt;2&lt;/b&gt;" style="rounded=0;whiteSpace=wrap;html=1;fontSize=14;fontColor=#000000;fillColor=#66FFFF;strokeWidth=3;strokeColor=#000000;" parent="1" vertex="1">
                    <mxGeometry x="129" y="460" width="40" height="30" as="geometry"/>
                </mxCell>
                <mxCell id="77" value="1" style="rounded=0;whiteSpace=wrap;html=1;fontSize=14;fontColor=#000000;fillColor=#66FFFF;strokeWidth=3;strokeColor=#000000;fontStyle=1" parent="1" vertex="1">
                    <mxGeometry x="39" y="460" width="40" height="30" as="geometry"/>
                </mxCell>
                <mxCell id="78" value="&lt;b&gt;3&lt;/b&gt;" style="rounded=0;whiteSpace=wrap;html=1;fontSize=14;fontColor=#000000;fillColor=#66FFFF;strokeWidth=3;strokeColor=#000000;" parent="1" vertex="1">
                    <mxGeometry x="219" y="460" width="40" height="30" as="geometry"/>
                </mxCell>
                <mxCell id="79" value="" style="endArrow=classic;html=1;fontSize=19;fontColor=#000000;strokeColor=#000000;strokeWidth=3;entryX=0;entryY=1;entryDx=0;entryDy=0;rounded=1;" parent="1" edge="1">
                    <mxGeometry width="50" height="50" relative="1" as="geometry">
                        <mxPoint x="59" y="502.5" as="sourcePoint"/>
                        <mxPoint x="129" y="490" as="targetPoint"/>
                    </mxGeometry>
                </mxCell>
                <mxCell id="80" value="" style="endArrow=classic;html=1;fontSize=19;fontColor=#000000;strokeColor=#000000;strokeWidth=3;entryX=0;entryY=1;entryDx=0;entryDy=0;rounded=1;" parent="1" edge="1">
                    <mxGeometry width="50" height="50" relative="1" as="geometry">
                        <mxPoint x="149" y="502.5" as="sourcePoint"/>
                        <mxPoint x="219" y="490" as="targetPoint"/>
                    </mxGeometry>
                </mxCell>
                <mxCell id="81" value="" style="endArrow=classic;html=1;fontSize=19;fontColor=#000000;strokeColor=#000000;strokeWidth=3;entryX=0;entryY=1;entryDx=0;entryDy=0;rounded=1;" parent="1" edge="1">
                    <mxGeometry width="50" height="50" relative="1" as="geometry">
                        <mxPoint x="239" y="502.5" as="sourcePoint"/>
                        <mxPoint x="309" y="490" as="targetPoint"/>
                    </mxGeometry>
                </mxCell>
                <mxCell id="82" value="&lt;font size=&quot;1&quot; style=&quot;&quot;&gt;&lt;b style=&quot;font-size: 15px;&quot;&gt;head&lt;/b&gt;&lt;/font&gt;" style="text;html=1;strokeColor=none;fillColor=none;align=center;verticalAlign=middle;whiteSpace=wrap;rounded=0;fontSize=19;fontColor=#000000;" parent="1" vertex="1">
                    <mxGeometry x="29" y="430" width="60" height="30" as="geometry"/>
                </mxCell>
                <mxCell id="83" value="" style="endArrow=none;html=1;rounded=1;strokeColor=#FF0000;strokeWidth=2;fontSize=15;fontColor=#FF0000;exitX=0;exitY=1;exitDx=0;exitDy=0;" parent="1" edge="1">
                    <mxGeometry width="50" height="50" relative="1" as="geometry">
                        <mxPoint x="121" y="460" as="sourcePoint"/>
                        <mxPoint x="182" y="520" as="targetPoint"/>
                    </mxGeometry>
                </mxCell>
                <mxCell id="84" value="" style="endArrow=none;html=1;rounded=1;strokeColor=#FF0000;strokeWidth=2;fontSize=15;fontColor=#FF0000;" parent="1" edge="1">
                    <mxGeometry width="50" height="50" relative="1" as="geometry">
                        <mxPoint x="119" y="516" as="sourcePoint"/>
                        <mxPoint x="179" y="459" as="targetPoint"/>
                    </mxGeometry>
                </mxCell>
                <mxCell id="85" value="" style="endArrow=none;html=1;rounded=1;strokeColor=#FF0000;strokeWidth=2;fontSize=15;fontColor=#FF0000;" parent="1" edge="1">
                    <mxGeometry width="50" height="50" relative="1" as="geometry">
                        <mxPoint x="90" y="505" as="sourcePoint"/>
                        <mxPoint x="107" y="485" as="targetPoint"/>
                    </mxGeometry>
                </mxCell>
                <mxCell id="87" value="" style="endArrow=classic;html=1;fontSize=19;fontColor=#000000;strokeColor=#FF0000;strokeWidth=3;rounded=1;entryX=-0.058;entryY=0.885;entryDx=0;entryDy=0;entryPerimeter=0;" parent="1" target="75" edge="1">
                    <mxGeometry width="50" height="50" relative="1" as="geometry">
                        <mxPoint x="60" y="505" as="sourcePoint"/>
                        <mxPoint x="210" y="535" as="targetPoint"/>
                        <Array as="points">
                            <mxPoint x="90" y="540"/>
                            <mxPoint x="180" y="540"/>
                        </Array>
                    </mxGeometry>
                </mxCell>
                <mxCell id="88" value="" style="rounded=0;whiteSpace=wrap;html=1;fontSize=14;fontColor=#000000;fillColor=#FFFFFF;strokeWidth=3;strokeColor=#000000;" parent="1" vertex="1">
                    <mxGeometry x="521" y="78.75" width="40" height="55" as="geometry"/>
                </mxCell>
                <mxCell id="91" value="2" style="rounded=0;whiteSpace=wrap;html=1;fontSize=14;fontColor=#000000;fillColor=#66FFFF;strokeWidth=3;strokeColor=#000000;fontStyle=1" parent="1" vertex="1">
                    <mxGeometry x="521" y="78.75" width="40" height="30" as="geometry"/>
                </mxCell>
                <mxCell id="94" value="" style="endArrow=classic;html=1;fontSize=19;fontColor=#000000;strokeColor=#000000;strokeWidth=3;entryX=0;entryY=1;entryDx=0;entryDy=0;rounded=1;" parent="1" edge="1">
                    <mxGeometry width="50" height="50" relative="1" as="geometry">
                        <mxPoint x="541" y="121.25" as="sourcePoint"/>
                        <mxPoint x="611.0000000000002" y="108.74999999999989" as="targetPoint"/>
                    </mxGeometry>
                </mxCell>
                <mxCell id="98" value="&lt;font size=&quot;1&quot; style=&quot;&quot;&gt;&lt;b style=&quot;font-size: 15px;&quot;&gt;head&lt;/b&gt;&lt;/font&gt;" style="text;html=1;strokeColor=none;fillColor=none;align=center;verticalAlign=middle;whiteSpace=wrap;rounded=0;fontSize=19;fontColor=#000000;" parent="1" vertex="1">
                    <mxGeometry x="510" y="48.75" width="60" height="30" as="geometry"/>
                </mxCell>
                <mxCell id="100" value="&lt;font color=&quot;#000000&quot; style=&quot;font-size: 19px;&quot;&gt;&lt;span style=&quot;font-size: 19px;&quot;&gt;Резултат:&lt;/span&gt;&lt;/font&gt;" style="text;html=1;strokeColor=none;fillColor=none;align=center;verticalAlign=bottom;whiteSpace=wrap;rounded=0;fontStyle=1;fontSize=19;" parent="1" vertex="1">
                    <mxGeometry x="529" width="140" height="36.25" as="geometry"/>
                </mxCell>
                <mxCell id="101" value="" style="rounded=0;whiteSpace=wrap;html=1;fontSize=14;fontColor=#000000;fillColor=#FFFFFF;strokeWidth=3;strokeColor=#000000;" parent="1" vertex="1">
                    <mxGeometry x="521" y="255" width="40" height="55" as="geometry"/>
                </mxCell>
                <mxCell id="104" value="&lt;b&gt;1&lt;/b&gt;" style="rounded=0;whiteSpace=wrap;html=1;fontSize=14;fontColor=#000000;fillColor=#FF66FF;strokeWidth=3;strokeColor=#000000;" parent="1" vertex="1">
                    <mxGeometry x="521" y="255" width="40" height="30" as="geometry"/>
                </mxCell>
                <mxCell id="106" value="" style="endArrow=classic;html=1;fontSize=19;fontColor=#000000;strokeColor=#000000;strokeWidth=3;entryX=0;entryY=1;entryDx=0;entryDy=0;" parent="1" edge="1">
                    <mxGeometry width="50" height="50" relative="1" as="geometry">
                        <mxPoint x="541.0000000000002" y="297.5" as="sourcePoint"/>
                        <mxPoint x="611" y="285" as="targetPoint"/>
                    </mxGeometry>
                </mxCell>
                <mxCell id="107" value="&lt;font size=&quot;1&quot; style=&quot;&quot;&gt;&lt;b style=&quot;font-size: 15px;&quot;&gt;head&lt;/b&gt;&lt;/font&gt;" style="text;html=1;strokeColor=none;fillColor=none;align=center;verticalAlign=middle;whiteSpace=wrap;rounded=0;fontSize=19;fontColor=#000000;" parent="1" vertex="1">
                    <mxGeometry x="510" y="222.5" width="60" height="30" as="geometry"/>
                </mxCell>
                <mxCell id="108" value="&lt;font size=&quot;1&quot; style=&quot;&quot;&gt;&lt;b style=&quot;font-size: 15px;&quot;&gt;tail&lt;/b&gt;&lt;/font&gt;" style="text;html=1;strokeColor=none;fillColor=none;align=center;verticalAlign=middle;whiteSpace=wrap;rounded=0;fontSize=19;fontColor=#000000;" parent="1" vertex="1">
                    <mxGeometry x="602" y="222.5" width="60" height="30" as="geometry"/>
                </mxCell>
                <mxCell id="109" value="" style="rounded=0;whiteSpace=wrap;html=1;fontSize=14;fontColor=#000000;fillColor=#FFFFFF;strokeWidth=3;strokeColor=#000000;" parent="1" vertex="1">
                    <mxGeometry x="612" y="255" width="40" height="55" as="geometry"/>
                </mxCell>
                <mxCell id="110" value="&lt;b&gt;2&lt;/b&gt;" style="rounded=0;whiteSpace=wrap;html=1;fontSize=14;fontColor=#000000;fillColor=#FF66FF;strokeWidth=3;strokeColor=#000000;" parent="1" vertex="1">
                    <mxGeometry x="612" y="255" width="40" height="30" as="geometry"/>
                </mxCell>
                <mxCell id="111" value="" style="endArrow=classic;html=1;fontSize=19;fontColor=#000000;strokeColor=#000000;strokeWidth=3;entryX=0;entryY=1;entryDx=0;entryDy=0;rounded=1;" parent="1" edge="1">
                    <mxGeometry width="50" height="50" relative="1" as="geometry">
                        <mxPoint x="632" y="297.5" as="sourcePoint"/>
                        <mxPoint x="702" y="285" as="targetPoint"/>
                    </mxGeometry>
                </mxCell>
                <mxCell id="112" value="&lt;font color=&quot;#000000&quot; style=&quot;font-size: 19px;&quot;&gt;&lt;span style=&quot;font-size: 19px;&quot;&gt;nullptr&lt;/span&gt;&lt;/font&gt;" style="text;html=1;strokeColor=none;fillColor=none;align=left;verticalAlign=middle;whiteSpace=wrap;rounded=0;fontStyle=1;fontSize=19;" parent="1" vertex="1">
                    <mxGeometry x="702" y="270.5" width="98" height="27" as="geometry"/>
                </mxCell>
                <mxCell id="113" value="&lt;font color=&quot;#000000&quot; style=&quot;font-size: 19px;&quot;&gt;&lt;span style=&quot;font-size: 19px;&quot;&gt;Резултат:&lt;/span&gt;&lt;/font&gt;" style="text;html=1;strokeColor=none;fillColor=none;align=center;verticalAlign=bottom;whiteSpace=wrap;rounded=0;fontStyle=1;fontSize=19;" parent="1" vertex="1">
                    <mxGeometry x="529" y="190" width="140" height="30" as="geometry"/>
                </mxCell>
                <mxCell id="114" value="&lt;font color=&quot;#000000&quot; style=&quot;font-size: 19px;&quot;&gt;&lt;span style=&quot;font-size: 19px;&quot;&gt;Резултат:&lt;/span&gt;&lt;/font&gt;" style="text;html=1;strokeColor=none;fillColor=none;align=center;verticalAlign=bottom;whiteSpace=wrap;rounded=0;fontStyle=1;fontSize=19;" parent="1" vertex="1">
                    <mxGeometry x="529" y="390" width="140" height="30" as="geometry"/>
                </mxCell>
                <mxCell id="115" value="" style="rounded=0;whiteSpace=wrap;html=1;fontSize=14;fontColor=#000000;fillColor=#FFFFFF;strokeWidth=3;strokeColor=#000000;" parent="1" vertex="1">
                    <mxGeometry x="521" y="458.75" width="40" height="55" as="geometry"/>
                </mxCell>
                <mxCell id="117" value="" style="rounded=0;whiteSpace=wrap;html=1;fontSize=14;fontColor=#000000;fillColor=#FFFFFF;strokeWidth=3;strokeColor=#000000;" parent="1" vertex="1">
                    <mxGeometry x="600" y="458.75" width="40" height="55" as="geometry"/>
                </mxCell>
                <mxCell id="118" value="&lt;b&gt;1&lt;/b&gt;" style="rounded=0;whiteSpace=wrap;html=1;fontSize=14;fontColor=#000000;fillColor=#66FFFF;strokeWidth=3;strokeColor=#000000;" parent="1" vertex="1">
                    <mxGeometry x="521" y="458.75" width="40" height="30" as="geometry"/>
                </mxCell>
                <mxCell id="120" value="&lt;b&gt;3&lt;/b&gt;" style="rounded=0;whiteSpace=wrap;html=1;fontSize=14;fontColor=#000000;fillColor=#66FFFF;strokeWidth=3;strokeColor=#000000;" parent="1" vertex="1">
                    <mxGeometry x="600" y="458.75" width="40" height="30" as="geometry"/>
                </mxCell>
                <mxCell id="121" value="" style="endArrow=classic;html=1;fontSize=19;fontColor=#000000;strokeColor=#000000;strokeWidth=3;rounded=1;" parent="1" edge="1">
                    <mxGeometry width="50" height="50" relative="1" as="geometry">
                        <mxPoint x="542" y="501.25" as="sourcePoint"/>
                        <mxPoint x="600.0000000000002" y="488.75" as="targetPoint"/>
                    </mxGeometry>
                </mxCell>
                <mxCell id="123" value="" style="endArrow=classic;html=1;fontSize=19;fontColor=#000000;strokeColor=#000000;strokeWidth=3;" parent="1" edge="1">
                    <mxGeometry width="50" height="50" relative="1" as="geometry">
                        <mxPoint x="620" y="501.25" as="sourcePoint"/>
                        <mxPoint x="678" y="488.75" as="targetPoint"/>
                    </mxGeometry>
                </mxCell>
                <mxCell id="124" value="&lt;font size=&quot;1&quot; style=&quot;&quot;&gt;&lt;b style=&quot;font-size: 15px;&quot;&gt;head&lt;/b&gt;&lt;/font&gt;" style="text;html=1;strokeColor=none;fillColor=none;align=center;verticalAlign=middle;whiteSpace=wrap;rounded=0;fontSize=19;fontColor=#000000;" parent="1" vertex="1">
                    <mxGeometry x="510" y="426.25" width="60" height="40" as="geometry"/>
                </mxCell>
                <mxCell id="125" value="&lt;font size=&quot;1&quot; style=&quot;&quot;&gt;&lt;b style=&quot;font-size: 15px;&quot;&gt;tail&lt;/b&gt;&lt;/font&gt;" style="text;html=1;strokeColor=none;fillColor=none;align=center;verticalAlign=middle;whiteSpace=wrap;rounded=0;fontSize=19;fontColor=#000000;" parent="1" vertex="1">
                    <mxGeometry x="669" y="428.75" width="60" height="30" as="geometry"/>
                </mxCell>
                <mxCell id="126" value="" style="rounded=0;whiteSpace=wrap;html=1;fontSize=14;fontColor=#000000;fillColor=#FFFFFF;strokeWidth=3;strokeColor=#000000;" parent="1" vertex="1">
                    <mxGeometry x="679" y="458.75" width="40" height="55" as="geometry"/>
                </mxCell>
                <mxCell id="127" value="&lt;b&gt;4&lt;/b&gt;" style="rounded=0;whiteSpace=wrap;html=1;fontSize=14;fontColor=#000000;fillColor=#66FFFF;strokeWidth=3;strokeColor=#000000;" parent="1" vertex="1">
                    <mxGeometry x="679" y="458.75" width="40" height="30" as="geometry"/>
                </mxCell>
                <mxCell id="128" value="" style="endArrow=classic;html=1;fontSize=19;fontColor=#000000;strokeColor=#000000;strokeWidth=3;rounded=1;" parent="1" edge="1">
                    <mxGeometry width="50" height="50" relative="1" as="geometry">
                        <mxPoint x="710" y="498.75" as="sourcePoint"/>
                        <mxPoint x="764" y="486.25" as="targetPoint"/>
                    </mxGeometry>
                </mxCell>
                <mxCell id="129" value="&lt;font color=&quot;#000000&quot; style=&quot;font-size: 19px;&quot;&gt;&lt;span style=&quot;font-size: 19px;&quot;&gt;nullptr&lt;/span&gt;&lt;/font&gt;" style="text;html=1;strokeColor=none;fillColor=none;align=left;verticalAlign=top;whiteSpace=wrap;rounded=0;fontStyle=1;fontSize=19;" parent="1" vertex="1">
                    <mxGeometry x="762" y="468.25" width="88" height="55.5" as="geometry"/>
                </mxCell>
                <mxCell id="134" value="" style="rounded=0;whiteSpace=wrap;html=1;fontSize=14;fontColor=#000000;fillColor=#FFFFFF;strokeWidth=3;strokeColor=#000000;" parent="1" vertex="1">
                    <mxGeometry x="221" y="80" width="40" height="55" as="geometry"/>
                </mxCell>
                <mxCell id="135" value="3" style="rounded=0;whiteSpace=wrap;html=1;fontSize=14;fontColor=#000000;fillColor=#66FFFF;strokeWidth=3;strokeColor=#000000;fontStyle=1" parent="1" vertex="1">
                    <mxGeometry x="221" y="80" width="40" height="30" as="geometry"/>
                </mxCell>
                <mxCell id="136" value="" style="endArrow=classic;html=1;fontSize=19;fontColor=#000000;strokeColor=#000000;strokeWidth=3;entryX=0;entryY=1;entryDx=0;entryDy=0;" parent="1" edge="1">
                    <mxGeometry width="50" height="50" relative="1" as="geometry">
                        <mxPoint x="241" y="122.5" as="sourcePoint"/>
                        <mxPoint x="311" y="110" as="targetPoint"/>
                    </mxGeometry>
                </mxCell>
                <mxCell id="137" value="&lt;font color=&quot;#000000&quot; style=&quot;font-size: 19px;&quot;&gt;&lt;span style=&quot;font-size: 19px;&quot;&gt;nullptr&lt;/span&gt;&lt;/font&gt;" style="text;html=1;strokeColor=none;fillColor=none;align=left;verticalAlign=middle;whiteSpace=wrap;rounded=0;fontStyle=1;fontSize=19;" parent="1" vertex="1">
                    <mxGeometry x="311" y="95" width="98" height="30" as="geometry"/>
                </mxCell>
                <mxCell id="138" value="&lt;font size=&quot;1&quot; style=&quot;&quot;&gt;&lt;b style=&quot;font-size: 15px;&quot;&gt;tail&lt;/b&gt;&lt;/font&gt;" style="text;html=1;strokeColor=none;fillColor=none;align=center;verticalAlign=middle;whiteSpace=wrap;rounded=0;fontSize=19;fontColor=#000000;" parent="1" vertex="1">
                    <mxGeometry x="211" y="50" width="60" height="30" as="geometry"/>
                </mxCell>
                <mxCell id="139" value="" style="rounded=0;whiteSpace=wrap;html=1;fontSize=14;fontColor=#000000;fillColor=#FFFFFF;strokeWidth=3;strokeColor=#000000;" parent="1" vertex="1">
                    <mxGeometry x="610" y="78.75" width="40" height="55" as="geometry"/>
                </mxCell>
                <mxCell id="140" value="3" style="rounded=0;whiteSpace=wrap;html=1;fontSize=14;fontColor=#000000;fillColor=#66FFFF;strokeWidth=3;strokeColor=#000000;fontStyle=1" parent="1" vertex="1">
                    <mxGeometry x="610" y="78.75" width="40" height="30" as="geometry"/>
                </mxCell>
                <mxCell id="141" value="" style="endArrow=classic;html=1;fontSize=19;fontColor=#000000;strokeColor=#000000;strokeWidth=3;entryX=0;entryY=1;entryDx=0;entryDy=0;" parent="1" edge="1">
                    <mxGeometry width="50" height="50" relative="1" as="geometry">
                        <mxPoint x="630" y="121.25" as="sourcePoint"/>
                        <mxPoint x="700" y="108.75" as="targetPoint"/>
                    </mxGeometry>
                </mxCell>
                <mxCell id="142" value="&lt;font color=&quot;#000000&quot; style=&quot;font-size: 19px;&quot;&gt;&lt;span style=&quot;font-size: 19px;&quot;&gt;nullptr&lt;/span&gt;&lt;/font&gt;" style="text;html=1;strokeColor=none;fillColor=none;align=left;verticalAlign=middle;whiteSpace=wrap;rounded=0;fontStyle=1;fontSize=19;" parent="1" vertex="1">
                    <mxGeometry x="700" y="93.75" width="98" height="30" as="geometry"/>
                </mxCell>
                <mxCell id="143" value="&lt;font size=&quot;1&quot; style=&quot;&quot;&gt;&lt;b style=&quot;font-size: 15px;&quot;&gt;tail&lt;/b&gt;&lt;/font&gt;" style="text;html=1;strokeColor=none;fillColor=none;align=center;verticalAlign=middle;whiteSpace=wrap;rounded=0;fontSize=19;fontColor=#000000;" parent="1" vertex="1">
                    <mxGeometry x="600" y="48.75" width="60" height="30" as="geometry"/>
                </mxCell>
            </root>
        </mxGraphModel>
    </diagram>
</mxfile>